	<svg xmlns="http://www.w3.org/2000/svg" version="1.1" xlink="http://www.w3.org/1999/xlink" xmlns:svgjs="http://svgjs.com/svgjs" width="100%" height="100%" preserveAspectRatio="xMidYMid meet" viewBox="0 -2.4459757241857005e-7 279.03094482421875 147.00146484375" overflow="visible"><defs id="SvgjsDefs20542"></defs><g id="SvgjsG20543" transform="scale(0.603963063023004)" opacity="1"><g id="SvgjsG20544" class="MxKOUIh0R" transform="translate(152.77826086956526, -8.960869565217392) scale(1.5652173913043474)" light-content="false" non-strokable="false" fill="#f50c0c"><path d="M48.9 6.1L35 20c-1.2 1.2-1.9 2.8-1.9 4.5 0 1.7.7 3.3 1.9 4.5l13.9 14c.3.3.7.4 1.1.4s.8-.2 1.1-.4L65 29.1c2.5-2.5 2.5-6.6 0-9.1L51.1 6.1c-.6-.5-1.6-.5-2.2 0zM43.5 50c0-.4-.2-.8-.4-1.1L29.1 35c-2.5-2.5-6.6-2.5-9.1 0L6.1 48.9c-.3.3-.4.7-.4 1.1s.2.8.4 1.1L20 65c1.2 1.2 2.8 1.9 4.5 1.9s3.3-.7 4.5-1.9l14-13.9c.3-.3.5-.7.5-1.1zM80 35c-2.5-2.5-6.6-2.5-9.1 0L57 48.9c-.3.3-.4.7-.4 1.1s.2.8.4 1.1L70.9 65c1.2 1.2 2.8 1.9 4.5 1.9 1.7 0 3.3-.7 4.5-1.9l13.9-13.9c.6-.6.6-1.5 0-2.1L80 35zM51.1 57c-.6-.6-1.5-.6-2.1 0L35 70.9c-2.5 2.5-2.5 6.6 0 9.1l13.9 13.9c.3.3.7.4 1.1.4s.8-.1 1.1-.4L65 80c2.5-2.5 2.5-6.6 0-9.1L51.1 57z"></path></g><g id="SvgjsG20545" class="text" transform="translate(232.37, 210.31805129809197) scale(1)" light-content="false" fill="#0f0f0f"><path d="M-209.6 0L-198.05 0L-206.61 -57.17L-223.81 -57.17L-232.37 0L-220.99 0L-219.57 -11.38L-211.02 -11.38ZM-215 -45.95L-212.1 -21.44L-218.49 -21.44L-215.59 -45.95Z M-143.38 0L-132.33 0L-132.33 -57.17L-149.78 -57.17L-154.51 -16.87L-155.18 -16.87L-159.91 -57.17L-177.7 -57.17L-177.7 0L-166.98 0L-166.98 -43.13L-166.23 -43.13L-160.91 0L-149.44 0L-143.96 -43.13L-143.38 -43.13Z M-90.28 0L-78.48 0L-84.3 -22.02C-82.53 -23.46 -81.33 -25.48 -80.73 -28.09C-80.12 -30.69 -79.81 -34.12 -79.81 -38.39C-79.81 -42.93 -80.14 -46.52 -80.81 -49.15C-81.47 -51.78 -82.76 -53.78 -84.67 -55.13C-86.58 -56.49 -89.42 -57.17 -93.19 -57.17L-109.31 -57.17L-109.31 0L-97.93 0L-97.93 -19.53L-94.6 -19.53ZM-92.52 -30.12C-93.02 -29.76 -93.88 -29.58 -95.1 -29.58L-97.93 -29.58L-97.93 -46.78L-95.1 -46.78C-93.88 -46.78 -93.02 -46.6 -92.52 -46.24C-92.03 -45.88 -91.69 -45.13 -91.53 -44C-91.36 -42.86 -91.28 -40.94 -91.28 -38.22C-91.28 -35.45 -91.36 -33.5 -91.53 -32.36C-91.69 -31.23 -92.03 -30.48 -92.52 -30.12Z M-29.12 -57.17L-29.12 0L-15.25 0C-10.32 0 -6.81 -0.84 -4.74 -2.53C-2.66 -4.22 -1.37 -6.87 -0.87 -10.47C-0.37 -14.07 -0.12 -20.11 -0.12 -28.58C-0.12 -37.06 -0.37 -43.1 -0.87 -46.7C-1.37 -50.3 -2.66 -52.94 -4.74 -54.63C-6.81 -56.32 -10.32 -57.17 -15.25 -57.17ZM-15.25 -10.39L-17.82 -10.39L-17.82 -46.78L-15.25 -46.78C-13.92 -46.78 -13.02 -46.5 -12.55 -45.95C-12.08 -45.4 -11.77 -43.96 -11.63 -41.63C-11.49 -39.3 -11.43 -34.95 -11.43 -28.58C-11.43 -22.21 -11.49 -17.87 -11.63 -15.54C-11.77 -13.21 -12.08 -11.77 -12.55 -11.22C-13.02 -10.66 -13.92 -10.39 -15.25 -10.39Z M22.06 0L45 0L45 -10.39L33.45 -10.39L33.45 -23.68L43.58 -23.68L43.58 -34.07L33.45 -34.07L33.45 -46.78L45 -46.78L45 -57.17L22.06 -57.17Z M72.37 0.25C74.67 0.53 76.76 0.66 78.65 0.66C81.97 0.66 84.63 0.24 86.62 -0.62C88.62 -1.48 90.18 -3.27 91.32 -5.98C92.46 -8.7 93.02 -12.74 93.02 -18.11C93.02 -22.21 92.69 -25.26 92.03 -27.25C91.36 -29.3 90.46 -30.74 89.33 -31.58C88.19 -32.41 86.82 -33.02 85.21 -33.4L79.98 -34.65C79.04 -34.87 78.37 -35.16 77.98 -35.52C77.6 -35.88 77.33 -36.45 77.19 -37.23C77.06 -38 76.99 -39.22 76.99 -40.88C76.99 -42.43 77.06 -43.61 77.19 -44.41C77.33 -45.22 77.62 -45.84 78.07 -46.28C78.4 -46.78 78.99 -47.1 79.85 -47.24C80.71 -47.38 82 -47.45 83.72 -47.45C85.54 -47.45 87.19 -47.39 88.66 -47.28C90.13 -47.17 90.97 -47.06 91.2 -46.95L91.2 -56.42C90.75 -56.64 89.51 -56.93 87.46 -57.29C85.41 -57.65 83.05 -57.83 80.39 -57.83C77.12 -57.83 74.44 -57.39 72.33 -56.5C70.23 -55.62 68.58 -53.91 67.39 -51.39C66.2 -48.87 65.6 -45.23 65.6 -40.47C65.6 -35.87 66 -32.3 66.81 -29.75C67.61 -27.2 69.01 -25.7 71 -25.26L77.07 -23.85C78.56 -23.52 79.6 -23.14 80.19 -22.73C80.77 -22.31 81.14 -21.66 81.31 -20.77C81.47 -19.89 81.56 -18.34 81.56 -16.12C81.56 -14.74 81.49 -13.64 81.35 -12.84C81.21 -12.03 80.97 -11.38 80.64 -10.89C80.25 -10.39 79.7 -10.07 78.98 -9.93C78.26 -9.79 77.12 -9.72 75.57 -9.72C73.03 -9.72 69.95 -9.89 66.35 -10.22L66.35 -0.83C68.07 -0.39 70.08 -0.03 72.37 0.25Z M114.38 0L125.85 0L125.85 -57.17L114.38 -57.17Z M163.32 -23.43L166.81 -23.43L166.81 -9.56C165.98 -9.39 165.12 -9.31 164.23 -9.31C162.68 -9.31 161.58 -9.72 160.91 -10.55C160.25 -11.38 159.82 -13.06 159.62 -15.58C159.43 -18.1 159.33 -22.44 159.33 -28.58C159.33 -35.07 159.53 -39.54 159.91 -42C160.3 -44.47 161.04 -45.99 162.12 -46.57C163.2 -47.16 165.2 -47.45 168.14 -47.45C170.24 -47.45 173.18 -47.17 176.95 -46.62L176.95 -56.17C175.34 -56.67 173.43 -57.07 171.21 -57.38C169 -57.68 166.98 -57.83 165.15 -57.83C160.33 -57.83 156.73 -57.04 154.35 -55.46C151.96 -53.89 150.32 -51.07 149.4 -47.03C148.49 -42.99 148.03 -36.84 148.03 -28.58C148.03 -20.39 148.46 -14.25 149.32 -10.18C150.18 -6.11 151.71 -3.28 153.93 -1.7C156.15 -0.12 159.47 0.66 163.9 0.66C166.12 0.66 168.44 0.5 170.88 0.17C173.32 -0.17 175.37 -0.58 177.03 -1.08L177.03 -33.49L163.32 -33.49Z M219.66 0L229.63 0L229.63 -57.17L218.74 -57.17L218.74 -31.24L218.33 -31.24L210.19 -57.17L199.63 -57.17L199.63 0L210.43 0L210.43 -28.67L210.77 -28.67Z"></path></g><g id="SvgjsG20546" class="text" transform="translate(232.27352517985616, 243.11481388801997) scale(1)" light-content="false" fill="#0f0f0f"><path d="M-63.48 -7.51L-63.48 0L-60.69 0L-60.69 -7.84L-54.26 -18.28L-55.64 -18.28L-61.35 -9.14L-65.28 -15.23C-65.87 -16.16 -66.5 -16.9 -67.15 -17.45C-67.81 -18 -68.61 -18.28 -69.55 -18.28L-72.18 -18.28L-72.18 -17.73C-71.37 -17.67 -70.68 -17.39 -70.1 -16.88C-69.53 -16.37 -68.91 -15.64 -68.25 -14.68Z M-52.38 -0.62C-51.43 -0.02 -50.33 0.28 -49.05 0.28C-47.78 0.28 -46.67 -0.02 -45.73 -0.62C-44.79 -1.22 -44.07 -2.04 -43.57 -3.06C-43.07 -4.09 -42.82 -5.23 -42.82 -6.51C-42.82 -7.78 -43.07 -8.93 -43.57 -9.96C-44.07 -10.98 -44.79 -11.79 -45.73 -12.39C-46.67 -12.99 -47.78 -13.29 -49.05 -13.29C-50.33 -13.29 -51.43 -12.99 -52.38 -12.39C-53.32 -11.79 -54.04 -10.98 -54.54 -9.96C-55.04 -8.93 -55.28 -7.78 -55.28 -6.51C-55.28 -5.23 -55.04 -4.09 -54.54 -3.06C-54.04 -2.04 -53.32 -1.22 -52.38 -0.62ZM-46.64 -2.47C-47.25 -1.39 -48.06 -0.86 -49.05 -0.86C-50.05 -0.86 -50.85 -1.39 -51.46 -2.47C-52.07 -3.54 -52.38 -4.88 -52.38 -6.51C-52.38 -8.13 -52.07 -9.48 -51.46 -10.55C-50.85 -11.62 -50.05 -12.16 -49.05 -12.16C-48.06 -12.16 -47.25 -11.62 -46.64 -10.55C-46.03 -9.48 -45.73 -8.13 -45.73 -6.51C-45.73 -4.88 -46.03 -3.54 -46.64 -2.47Z M-39.64 -4.74C-39.64 -1.39 -38.03 0.28 -34.82 0.28C-34.06 0.28 -33.38 0.14 -32.77 -0.12C-32.16 -0.39 -31.65 -0.73 -31.24 -1.14L-31.1 -1.14L-30.14 0L-28.5 0L-28.5 -13.02L-31.27 -13.02L-31.27 -2.52C-32.12 -1.49 -33.03 -0.97 -33.99 -0.97C-34.83 -0.97 -35.52 -1.27 -36.05 -1.87C-36.57 -2.47 -36.84 -3.43 -36.84 -4.74L-36.84 -9.61C-36.84 -10.55 -36.91 -11.26 -37.06 -11.74C-37.21 -12.22 -37.46 -12.56 -37.81 -12.74C-38.16 -12.93 -38.67 -13.02 -39.33 -13.02L-41.85 -13.02L-41.85 -12.38L-41.57 -12.38C-40.8 -12.38 -40.28 -12.15 -40.02 -11.7C-39.76 -11.25 -39.64 -10.55 -39.64 -9.61Z M-24.37 -9.61L-24.37 0L-21.6 0L-21.6 -9.39C-21.6 -9.81 -21.61 -10.14 -21.63 -10.36C-21.36 -10.75 -20.99 -11.05 -20.54 -11.27C-20.09 -11.49 -19.58 -11.61 -19.03 -11.61C-18.57 -11.61 -18.15 -11.52 -17.77 -11.36C-17.39 -11.19 -17.1 -10.97 -16.9 -10.69L-15.7 -11.61C-15.87 -11.9 -16.02 -12.14 -16.16 -12.33C-16.3 -12.51 -16.47 -12.69 -16.67 -12.85C-17.1 -13.15 -17.68 -13.29 -18.42 -13.29C-19.14 -13.29 -19.8 -13.15 -20.4 -12.85C-21 -12.56 -21.49 -12.21 -21.88 -11.83C-22.05 -12.25 -22.31 -12.56 -22.67 -12.74C-23.03 -12.93 -23.55 -13.02 -24.24 -13.02L-26.59 -13.02L-26.59 -12.38L-26.31 -12.38C-25.54 -12.38 -25.02 -12.15 -24.76 -11.7C-24.5 -11.25 -24.37 -10.55 -24.37 -9.61Z M-5.68 -14.87L-5.68 0L-0.06 0C2.16 0 4.04 -0.39 5.59 -1.16C7.15 -1.94 8.31 -3.02 9.1 -4.42C9.88 -5.81 10.28 -7.42 10.28 -9.25C10.28 -12.09 9.34 -14.31 7.46 -15.9C5.59 -17.49 2.84 -18.28 -0.78 -18.28L-8.09 -18.28L-8.09 -17.64L-7.62 -17.64C-6.84 -17.64 -6.32 -17.42 -6.07 -16.96C-5.81 -16.51 -5.68 -15.82 -5.68 -14.87ZM3.5 -1.99C2.42 -1.33 1.21 -1 -0.14 -1C-0.95 -1 -1.85 -1.11 -2.83 -1.33L-2.83 -16.9C-1.86 -17.15 -0.99 -17.28 -0.19 -17.28C1.19 -17.28 2.42 -16.95 3.5 -16.27C4.58 -15.6 5.43 -14.64 6.04 -13.41C6.65 -12.17 6.95 -10.75 6.95 -9.14C6.95 -7.5 6.65 -6.06 6.04 -4.83C5.43 -3.61 4.58 -2.66 3.5 -1.99Z M13.63 -9.61L13.63 0L16.4 0L16.4 -9.39C16.4 -9.81 16.39 -10.14 16.37 -10.36C16.65 -10.75 17.01 -11.05 17.46 -11.27C17.92 -11.49 18.42 -11.61 18.97 -11.61C19.43 -11.61 19.85 -11.52 20.23 -11.36C20.61 -11.19 20.9 -10.97 21.11 -10.69L22.3 -11.61C22.13 -11.9 21.98 -12.14 21.84 -12.33C21.7 -12.51 21.53 -12.69 21.33 -12.85C20.9 -13.15 20.32 -13.29 19.58 -13.29C18.86 -13.29 18.2 -13.15 17.6 -12.85C17 -12.56 16.51 -12.21 16.12 -11.83C15.95 -12.25 15.69 -12.56 15.33 -12.74C14.97 -12.93 14.45 -13.02 13.77 -13.02L11.41 -13.02L11.41 -12.38L11.69 -12.38C12.46 -12.38 12.98 -12.15 13.24 -11.7C13.5 -11.25 13.63 -10.55 13.63 -9.61Z M26.22 -0.62C27.11 -0.02 28.19 0.28 29.44 0.28C30.59 0.28 31.57 0.03 32.39 -0.46C33.21 -0.95 33.91 -1.67 34.48 -2.63L33.87 -3.1C33.36 -2.36 32.79 -1.8 32.18 -1.43C31.58 -1.05 30.84 -0.86 29.97 -0.86C28.86 -0.86 27.99 -1.32 27.35 -2.26C26.71 -3.19 26.4 -4.46 26.4 -6.07L34.79 -6.07L34.84 -7.34C34.84 -9.24 34.35 -10.71 33.38 -11.74C32.4 -12.78 30.99 -13.29 29.17 -13.29C28.04 -13.29 27.05 -13 26.19 -12.42C25.33 -11.84 24.66 -11.04 24.19 -10.01C23.72 -8.99 23.49 -7.82 23.49 -6.51C23.49 -5.23 23.72 -4.09 24.18 -3.06C24.64 -2.04 25.32 -1.22 26.22 -0.62ZM31.94 -7.23L26.4 -7.23C26.4 -8.72 26.66 -9.92 27.19 -10.82C27.71 -11.71 28.37 -12.16 29.17 -12.16C31.01 -12.16 31.94 -10.52 31.94 -7.23Z M38.21 -0.68C39.05 -0.04 40.03 0.28 41.16 0.28C42.06 0.28 42.83 0.13 43.46 -0.17C44.09 -0.46 44.57 -0.82 44.9 -1.25L45.04 -1.25L46.01 0L47.64 0L47.64 -7.48C47.64 -9.66 47.19 -11.17 46.3 -12.02C45.4 -12.87 44.16 -13.29 42.57 -13.29C41.63 -13.29 40.79 -13.22 40.04 -13.06C39.29 -12.9 38.75 -12.66 38.42 -12.33C38.1 -12.01 37.91 -11.66 37.84 -11.27C37.76 -10.89 37.72 -10.38 37.72 -9.75L39.05 -9.75C39.26 -10.64 39.6 -11.26 40.09 -11.62C40.58 -11.98 41.22 -12.16 42.02 -12.16C42.94 -12.16 43.64 -11.82 44.12 -11.15C44.6 -10.47 44.84 -9.26 44.84 -7.51L44.12 -7.51C41.85 -7.51 40.09 -7.2 38.83 -6.58C37.58 -5.96 36.95 -4.96 36.95 -3.57C36.95 -2.28 37.37 -1.32 38.21 -0.68ZM44.84 -2.71C44.21 -1.57 43.37 -1 42.29 -1C41.59 -1 41.02 -1.22 40.56 -1.66C40.11 -2.11 39.88 -2.74 39.88 -3.57C39.88 -4.46 40.25 -5.15 40.98 -5.64C41.71 -6.13 42.76 -6.37 44.12 -6.37L44.84 -6.37Z M51.74 -9.61L51.74 0L54.54 0L54.54 -10.69C54.87 -11.08 55.26 -11.4 55.7 -11.65C56.14 -11.9 56.61 -12.02 57.09 -12.02C57.81 -12.02 58.35 -11.73 58.73 -11.13C59.11 -10.54 59.3 -9.59 59.3 -8.28L59.3 0L62.07 0L62.07 -8.28C62.07 -9.35 62 -10.06 61.85 -10.41C62.14 -10.82 62.56 -11.19 63.08 -11.52C63.61 -11.85 64.12 -12.02 64.62 -12.02C65.34 -12.02 65.89 -11.73 66.27 -11.15C66.65 -10.57 66.83 -9.61 66.83 -8.28L66.83 0L69.63 0L69.63 -8.28C69.63 -10.11 69.27 -11.4 68.54 -12.16C67.81 -12.92 66.8 -13.29 65.51 -13.29C64.66 -13.29 63.88 -13.13 63.16 -12.8C62.45 -12.46 61.87 -12.01 61.41 -11.44C60.8 -12.68 59.64 -13.29 57.94 -13.29C57.19 -13.29 56.5 -13.17 55.89 -12.91C55.28 -12.65 54.78 -12.33 54.37 -11.94L54.23 -11.94C54.07 -12.31 53.8 -12.58 53.43 -12.75C53.06 -12.93 52.54 -13.02 51.88 -13.02L49.33 -13.02L49.33 -12.38L49.8 -12.38C50.58 -12.38 51.09 -12.15 51.35 -11.7C51.61 -11.25 51.74 -10.55 51.74 -9.61Z"></path></g></g></svg>	